<svg xmlns="http://www.w3.org/2000/svg" xmlns:xlink="http://www.w3.org/1999/xlink" contentStyleType="text/css" data-diagram-type="ACTIVITY" height="632px" preserveAspectRatio="none" style="width:621px;height:632px;background:#FFFFFF;" version="1.1" viewBox="0 0 621 632" width="621px" zoomAndPan="magnify"><title>Wybory 2030 - Proces głosowania</title><defs/><g><g class="title" data-source-line="1"><text fill="#000000" font-family="sans-serif" font-size="14" font-weight="bold" lengthAdjust="spacing" textLength="266.7998" x="175.8088" y="32.9951">Wybory 2030 - Proces głosowania</text></g><ellipse cx="175.3477" cy="57.2969" fill="#222222" rx="10" ry="10" style="stroke:#222222;stroke-width:1;"/><rect fill="#F1F1F1" height="33.9688" rx="12.5" ry="12.5" style="stroke:#181818;stroke-width:0.5;" width="200.5156" x="75.0898" y="87.2969"/><text fill="#000000" font-family="sans-serif" font-size="12" lengthAdjust="spacing" textLength="180.5156" x="85.0898" y="108.4355">Wejście do lokalu wyborczego</text><rect fill="#F1F1F1" height="33.9688" rx="12.5" ry="12.5" style="stroke:#181818;stroke-width:0.5;" width="235.2793" x="57.708" y="141.2656"/><text fill="#000000" font-family="sans-serif" font-size="12" lengthAdjust="spacing" textLength="215.2793" x="67.708" y="162.4043">Identyfikacja z dowodem osobistym</text><rect fill="#F1F1F1" height="33.9688" rx="12.5" ry="12.5" style="stroke:#181818;stroke-width:0.5;" width="328.6953" x="11" y="195.2344"/><text fill="#000000" font-family="sans-serif" font-size="12" lengthAdjust="spacing" textLength="308.6953" x="21" y="216.373">Wylosowanie zapieczętowanej koperty z kodem QR</text><rect fill="#F1F1F1" height="33.9688" rx="12.5" ry="12.5" style="stroke:#181818;stroke-width:0.5;" width="239" x="55.8477" y="249.2031"/><text fill="#000000" font-family="sans-serif" font-size="12" lengthAdjust="spacing" textLength="219" x="65.8477" y="270.3418">Udanie się do terminala wyborczego</text><rect fill="#F1F1F1" height="33.9688" rx="12.5" ry="12.5" style="stroke:#181818;stroke-width:0.5;" width="123.4121" x="113.6416" y="303.1719"/><text fill="#000000" font-family="sans-serif" font-size="12" lengthAdjust="spacing" textLength="103.4121" x="123.6416" y="324.3105">Otwarcie koperty</text><rect fill="#F1F1F1" height="33.9688" rx="12.5" ry="12.5" style="stroke:#181818;stroke-width:0.5;" width="236.9082" x="56.8936" y="357.1406"/><text fill="#000000" font-family="sans-serif" font-size="12" lengthAdjust="spacing" textLength="216.9082" x="66.8936" y="378.2793">Zeskanowanie kodu QR w terminalu</text><rect fill="#F1F1F1" height="33.9688" rx="12.5" ry="12.5" style="stroke:#181818;stroke-width:0.5;" width="267.3359" x="41.6797" y="411.1094"/><text fill="#000000" font-family="sans-serif" font-size="12" lengthAdjust="spacing" textLength="247.3359" x="51.6797" y="432.248">Wybór kandydata na ekranie dotykowym</text><path d="M319.9688,455.0781 L319.9688,486.3438 L299.9688,490.3438 L319.9688,494.3438 L319.9688,525.6094 A0,0 0 0 0 319.9688,525.6094 L609.4175,525.6094 A0,0 0 0 0 609.4175,525.6094 L609.4175,465.0781 L599.4175,455.0781 L319.9688,455.0781 A0,0 0 0 0 319.9688,455.0781" fill="#FEFFDD" style="stroke:#181818;stroke-width:0.5;"/><path d="M599.4175,455.0781 L599.4175,465.0781 L609.4175,465.0781 L599.4175,455.0781" fill="#FEFFDD" style="stroke:#181818;stroke-width:0.5;"/><text fill="#000000" font-family="sans-serif" font-size="13" lengthAdjust="spacing" textLength="250.2183" x="325.9688" y="472.145">Głos zostaje zapisany na blockchainie.</text><text fill="#000000" font-family="sans-serif" font-size="13" lengthAdjust="spacing" textLength="268.4487" x="325.9688" y="487.2778">Dzięki temu wyborca może zweryfikować</text><text fill="#000000" font-family="sans-serif" font-size="13" lengthAdjust="spacing" textLength="258.4702" x="325.9688" y="502.4106">swój głos na publicznej liście transakcji,</text><text fill="#000000" font-family="sans-serif" font-size="13" lengthAdjust="spacing" textLength="188.4302" x="325.9688" y="517.5435">porównując otrzymany hash.</text><rect fill="#F1F1F1" height="33.9688" rx="12.5" ry="12.5" style="stroke:#181818;stroke-width:0.5;" width="249.2422" x="50.7266" y="473.3594"/><text fill="#000000" font-family="sans-serif" font-size="12" lengthAdjust="spacing" textLength="229.2422" x="60.7266" y="494.498">Odebranie potwierdzenia (hash głosu)</text><rect fill="#F1F1F1" height="33.9688" rx="12.5" ry="12.5" style="stroke:#181818;stroke-width:0.5;" width="191.5742" x="79.5605" y="545.6094"/><text fill="#000000" font-family="sans-serif" font-size="12" lengthAdjust="spacing" textLength="171.5742" x="89.5605" y="566.748">Wyjście z lokalu wyborczego</text><ellipse cx="175.3477" cy="610.5781" fill="none" rx="11" ry="11" style="stroke:#222222;stroke-width:1;"/><ellipse cx="175.3477" cy="610.5781" fill="#222222" rx="6" ry="6" style="stroke:#222222;stroke-width:1;"/><line style="stroke:#181818;stroke-width:1;" x1="175.3477" x2="175.3477" y1="67.2969" y2="87.2969"/><polygon fill="#181818" points="171.3477,77.2969,175.3477,87.2969,179.3477,77.2969,175.3477,81.2969" style="stroke:#181818;stroke-width:1;"/><line style="stroke:#181818;stroke-width:1;" x1="175.3477" x2="175.3477" y1="121.2656" y2="141.2656"/><polygon fill="#181818" points="171.3477,131.2656,175.3477,141.2656,179.3477,131.2656,175.3477,135.2656" style="stroke:#181818;stroke-width:1;"/><line style="stroke:#181818;stroke-width:1;" x1="175.3477" x2="175.3477" y1="175.2344" y2="195.2344"/><polygon fill="#181818" points="171.3477,185.2344,175.3477,195.2344,179.3477,185.2344,175.3477,189.2344" style="stroke:#181818;stroke-width:1;"/><line style="stroke:#181818;stroke-width:1;" x1="175.3477" x2="175.3477" y1="229.2031" y2="249.2031"/><polygon fill="#181818" points="171.3477,239.2031,175.3477,249.2031,179.3477,239.2031,175.3477,243.2031" style="stroke:#181818;stroke-width:1;"/><line style="stroke:#181818;stroke-width:1;" x1="175.3477" x2="175.3477" y1="283.1719" y2="303.1719"/><polygon fill="#181818" points="171.3477,293.1719,175.3477,303.1719,179.3477,293.1719,175.3477,297.1719" style="stroke:#181818;stroke-width:1;"/><line style="stroke:#181818;stroke-width:1;" x1="175.3477" x2="175.3477" y1="337.1406" y2="357.1406"/><polygon fill="#181818" points="171.3477,347.1406,175.3477,357.1406,179.3477,347.1406,175.3477,351.1406" style="stroke:#181818;stroke-width:1;"/><line style="stroke:#181818;stroke-width:1;" x1="175.3477" x2="175.3477" y1="391.1094" y2="411.1094"/><polygon fill="#181818" points="171.3477,401.1094,175.3477,411.1094,179.3477,401.1094,175.3477,405.1094" style="stroke:#181818;stroke-width:1;"/><line style="stroke:#181818;stroke-width:1;" x1="175.3477" x2="175.3477" y1="445.0781" y2="473.3594"/><polygon fill="#181818" points="171.3477,463.3594,175.3477,473.3594,179.3477,463.3594,175.3477,467.3594" style="stroke:#181818;stroke-width:1;"/><line style="stroke:#181818;stroke-width:1;" x1="175.3477" x2="175.3477" y1="507.3281" y2="545.6094"/><polygon fill="#181818" points="171.3477,535.6094,175.3477,545.6094,179.3477,535.6094,175.3477,539.6094" style="stroke:#181818;stroke-width:1;"/><line style="stroke:#181818;stroke-width:1;" x1="175.3477" x2="175.3477" y1="579.5781" y2="599.5781"/><polygon fill="#181818" points="171.3477,589.5781,175.3477,599.5781,179.3477,589.5781,175.3477,593.5781" style="stroke:#181818;stroke-width:1;"/><!--SRC=[RL6zQXmn4Exr55F641jZTtPh2AaS6yn1kbbfSgVLhcQHj0Yf38GyWybZNElkxjxBezrBm91s-Fxc-v9D0y6cT1mAt5pVNiCbV0kiASBsz9CZP_GMbOe9GrBgRaFzwO-s18PXO8V33BcHTQKjtwkxhuPyAZ-iGzqZL85bDZI2A7KsfZ8APbE6ip11nScIhiVNr0xKW-E9GYf2TGlnwLaOBsO1HtjyRSQ9mcWz3lZH-p5b32tRMKDEtoawz6Sl4Pn53_8_WNb9qnts0GHcYi64u178XOLXE1N7UKdzQAXRhnEdR2cOIb8DVDfXtArbpHVtIdbE1C5kTqbzQKUeBENrwwiHVMa6tS3QwHrQqRjI3rKUSrPYZN_hH1Zvz2QaJA7LAIySVwkO3_j-zMegqzmDLjTMss3NMP94ZEXqRp-hYSDXd_tS7tzfu1Hg6Pjzotkbo1jeKTkcvRnf_T-aCZrFxm00]--></g></svg>